<?xml version="1.0" encoding="utf-8"?>
<!-- Generator: Adobe Illustrator 24.1.0, SVG Export Plug-In . SVG Version: 6.00 Build 0)  -->
<svg version="1.1" id="Layer_1" xmlns="http://www.w3.org/2000/svg" xmlns:xlink="http://www.w3.org/1999/xlink" x="0px" y="0px"
	 viewBox="0 0 3165 905" style="enable-background:new 0 0 3165 905;" xml:space="preserve">
<style type="text/css">
	.st0{fill:#3C3C3B;}
	.st1{fill:none;}
</style>
<polygon class="st0" points="220.6,198.1 220.6,537.3 266.1,537.3 266.1,393.3 402.6,393.3 402.6,349.6 266.1,349.6 266.1,241.7 
	421.8,241.7 421.8,198.1 "/>
<rect x="496.9" y="198.1" class="st0" width="45.5" height="339.2"/>
<polygon class="st0" points="639.9,187.8 639.9,537.3 685.9,537.3 685,295.7 934.1,548.5 935.5,548.5 935.5,198.1 890,198.1 
	890.9,443.5 642.3,187.8 "/>
<polygon class="st0" points="1253.5,198.1 1253.5,241.7 1078.6,241.7 1078.6,344.9 1234.8,344.9 1234.8,388.6 1078.6,388.6 
	1078.6,493.2 1260.1,493.2 1260.1,537.3 1033.1,537.3 1033.1,198.1 "/>
<path class="st0" d="M1559.2,492c11.1-6.1,19.8-14.1,26-24.2l-70.4-93.8c-11.3,0.6-22,3.9-32.1,9.9c-10.2,5.9-18.3,13.8-24.4,23.7
	c-6.1,9.9-9.1,20.6-9.1,32.1c0,17.8,6.8,32.5,20.4,44.1s30.3,17.4,50,17.4C1534.9,501.2,1548.1,498.1,1559.2,492 M1637.8,537.3
	l-28.1-37.5c-10,12.8-23.2,23.1-39.6,30.7c-16.4,7.7-35.1,11.5-56.1,11.5c-21.3,0-40.4-4.4-57.5-13.1c-17.1-8.8-30.4-20.7-40.1-35.9
	c-9.7-15.2-14.5-32.3-14.5-51.4c0-16,4-30.7,12-44.3c8-13.6,18.8-25.2,32.4-34.9c13.6-9.7,28.4-16.6,44.3-20.6l-15-19.7
	c-16-23.5-23.9-44.4-23.9-62.9c0-13.4,3.4-26.1,10.1-38s16.4-21.4,29.1-28.6c12.7-7.2,27.4-10.8,44.3-10.8
	c17.2,0,33.2,3.4,48.1,10.3c14.8,6.9,27.3,15.6,37.3,26.3l-22.5,30.5c-21.3-19.1-39.9-28.6-55.8-28.6c-13.1,0-23.7,4.1-31.7,12.2
	s-12,18.1-12,30c0,11.3,5.2,24.7,15.5,40.3l90.1,119.6l32.4-84.4h42.2l-47.4,120.6l59.6,78.8h-53.2V537.3z"/>
<rect x="220.6" y="181.7" class="st1" width="2757" height="366.9"/>
<path class="st0" d="M2001.8,408.7l-48.3-123.8l-50.2,123.8H2001.8z M2017.3,448.1h-130.4l-36.1,89.1h-45L1953.9,184h2.8L2105,537.3
	h-52.5L2017.3,448.1z"/>
<rect x="220.6" y="181.7" class="st1" width="2757" height="366.9"/>
<path class="st0" d="M2316.1,481.7c12.8-8.9,19.2-22,19.2-39.2c0-17.8-7-31-20.9-39.4s-30.7-12.7-50.4-12.7h-50.2V495h53.5
	C2287,495.1,2303.3,490.6,2316.1,481.7 M2213.8,346.3h51.6c17.5,0,30.7-5,39.6-15c8.9-10,13.4-22.8,13.4-38.5c0-17.2-5.3-30-16-38.5
	c-10.6-8.4-25.5-12.7-44.6-12.7h-44.1v104.7H2213.8z M2365.4,393.5c11.3,13.9,16.9,30.1,16.9,48.6c0,21.6-5.2,39.5-15.7,53.7
	s-24.2,24.7-41.3,31.4c-17,6.7-35.7,10.1-56.1,10.1h-100.9V198.1h87.7c34.7,0,61.6,7.1,80.7,21.3s28.6,35.6,28.6,64
	c0,17.8-4,33.4-12,46.7c-8,13.3-19.3,23.7-34,31.2C2338.8,368.9,2354.1,379.6,2365.4,393.5"/>
<polygon class="st0" points="2504.2,198.1 2504.2,493.2 2676.8,493.2 2676.8,537.3 2458.7,537.3 2458.7,198.1 "/>
<polygon class="st0" points="2750.5,198.1 2750.5,537.3 2977.5,537.3 2977.5,493.2 2796,493.2 2796,388.6 2952.2,388.6 
	2952.2,344.9 2796,344.9 2796,241.7 2971,241.7 2971,198.1 "/>
<g>
	<path class="st0" d="M810.8,655.4h20.4c9.3,0,16.9,1.8,23,5.5s10.5,8.4,13.3,14.2s4.2,11.9,4.2,18.4c0,7.2-1.7,13.6-5,19.1
		c-3.4,5.5-7.9,9.8-13.5,12.8s-11.7,4.5-18.3,4.5h-24v-74.5H810.8z M832.9,720.2c5.5,0,10.4-1.1,14.7-3.2c4.3-2.2,7.7-5.3,10.1-9.4
		c2.4-4.1,3.7-9,3.7-14.7c0-5.8-1.3-10.8-3.8-15s-5.9-7.4-10.1-9.5c-4.2-2.2-8.8-3.2-13.6-3.2h-13v55.2h12V720.2z"/>
	<path class="st0" d="M962.7,655.4v9.6h-38.4v22.7h34.3v9.6h-34.3v23h39.9v9.7h-49.9v-74.5L962.7,655.4L962.7,655.4z"/>
	<path class="st0" d="M1037.2,665.2c-3-0.9-5.9-1.3-8.5-1.3c-4.1,0-7.3,0.9-9.6,2.7c-2.4,1.8-3.6,4.3-3.6,7.5c0,3.1,1.4,5.6,4.2,7.6
		s6.7,3.9,11.9,5.8c3.8,1.4,7.1,2.9,9.7,4.5s4.8,3.8,6.6,6.7c1.8,2.9,2.6,6.5,2.6,10.9c0,4-1,7.6-3,10.8s-4.8,5.8-8.5,7.6
		c-3.7,1.9-8,2.8-12.9,2.8c-4.6,0-9-0.7-13.3-2.2s-8-3.3-11.2-5.6l4.4-7.9c2.5,1.9,5.6,3.6,9.2,4.9c3.6,1.3,6.9,2,10,2
		c4,0,7.5-1,10.5-3.1s4.5-5.1,4.5-9.2c0-3.4-1.3-6.2-3.8-8.2s-6-3.9-10.6-5.7c-4.2-1.6-7.7-3.1-10.5-4.6s-5.2-3.6-7.2-6.2
		c-2-2.6-3-6-3-9.9c0-5.8,2-10.6,6.1-14.2c4.1-3.6,9.4-5.5,15.9-5.7c8,0,15.5,2,22.4,6l-3.8,7.7
		C1043.1,667.3,1040.2,666.1,1037.2,665.2z"/>
	<path class="st0" d="M1102.9,655.4v74.5h-10v-74.5H1102.9z"/>
	<path class="st0" d="M1197.8,728.5c-4.8,1.5-9.3,2.3-13.4,2.3c-7.8,0-14.6-1.6-20.5-4.8s-10.5-7.6-13.6-13.1
		c-3.2-5.6-4.8-11.8-4.8-18.7c0-8.1,1.7-15.1,5.1-21.1c3.4-5.9,8.1-10.5,13.9-13.6c5.8-3.2,12.2-4.7,19.2-4.7
		c4.2,0,8.1,0.5,11.8,1.5c3.7,1,7,2.3,10,4l-3.3,9.2c-2.2-1.2-5-2.3-8.3-3.2s-6.3-1.4-9-1.4c-5.8,0-10.9,1.2-15.3,3.5
		s-7.8,5.7-10.2,10c-2.4,4.3-3.6,9.4-3.6,15.1c0,5.4,1.2,10.1,3.6,14.3s5.8,7.4,10.2,9.7c4.4,2.3,9.4,3.5,15,3.5
		c2.6,0,5.2-0.3,7.6-0.8c2.5-0.5,4.5-1.3,6.2-2.2v-15h-14.8v-9.6h24.9v30.1C1206.2,725.3,1202.7,727,1197.8,728.5z"/>
	<path class="st0" d="M1318.2,655.4v76.9h-0.3l-54.7-55.5l0.2,53h-10.1v-76.7h0.5l54.6,56.1l-0.2-53.9h10V655.4z"/>
	<path class="st0" d="M1467.9,655.4v9.6h-34.2v23.7h30v9.6h-30v31.6h-10v-74.5L1467.9,655.4L1467.9,655.4z"/>
	<path class="st0" d="M1509.1,673.8c3.4-5.8,8-10.5,13.9-14c5.8-3.5,12.1-5.2,19-5.2c6.8,0,13.1,1.7,19,5.2c5.8,3.5,10.5,8.1,14,14
		c3.5,5.8,5.2,12.2,5.2,19c0,6.9-1.7,13.2-5.2,19.1c-3.4,5.8-8.1,10.5-14,13.9s-12.2,5.1-19,5.1c-6.9,0-13.2-1.7-19.1-5
		c-5.8-3.4-10.5-7.9-13.9-13.8c-3.4-5.8-5.1-12.2-5.1-19.2C1503.9,685.9,1505.6,679.6,1509.1,673.8z M1517.9,706.9
		c2.5,4.3,5.9,7.8,10.1,10.3c4.3,2.5,9,3.8,14.1,3.8s9.7-1.3,14-3.8c4.2-2.5,7.6-5.9,10-10.3c2.4-4.4,3.7-9.1,3.7-14.3
		s-1.2-9.9-3.7-14.3c-2.5-4.4-5.8-7.9-10.1-10.4c-4.3-2.5-8.9-3.8-14-3.8s-9.8,1.3-14,3.9c-4.3,2.6-7.6,6.1-10,10.5
		s-3.7,9.2-3.7,14.3C1514.2,697.9,1515.4,702.6,1517.9,706.9z"/>
	<path class="st0" d="M1663.6,729.9l-17.5-27.5c-0.6,0.1-1.4,0.1-2.5,0.1h-11v27.4h-10v-74.5h19.9c5.1,0,9.6,0.9,13.6,2.7
		s7.1,4.4,9.4,7.9s3.4,7.6,3.4,12.5c0,4.6-1,8.8-3,12.7c-2,3.8-5.1,6.8-9.3,8.8l18.7,30h-11.7V729.9z M1655,688.6
		c2.4-2.8,3.6-6,3.6-9.7c0-2.2-0.5-4.4-1.5-6.5s-2.6-3.9-4.7-5.3c-2.2-1.4-4.9-2.1-8.2-2.1h-11.5v27.8h10.8
		C1648.7,692.8,1652.6,691.4,1655,688.6z"/>
	<path class="st0" d="M1784.6,655.4v64.8h37.9v9.7h-47.9v-74.5H1784.6z"/>
	<path class="st0" d="M1874.4,655.4v74.5h-10v-74.5H1874.4z"/>
	<path class="st0" d="M1980.8,655.4l-32.9,78l-32.9-78h11.8l21.4,53.7l20.7-53.7H1980.8z"/>
	<path class="st0" d="M2031.4,655.4v74.5h-10v-74.5H2031.4z"/>
	<path class="st0" d="M2143.4,655.4v76.9h-0.3l-54.7-55.5l0.2,53h-10.1v-76.7h0.5l54.6,56.1l-0.2-53.9h10V655.4z"/>
	<path class="st0" d="M2238.3,728.5c-4.8,1.5-9.3,2.3-13.4,2.3c-7.8,0-14.6-1.6-20.5-4.8s-10.5-7.6-13.6-13.1
		c-3.2-5.6-4.8-11.8-4.8-18.7c0-8.1,1.7-15.1,5.1-21.1c3.4-5.9,8.1-10.5,13.9-13.6c5.8-3.2,12.2-4.7,19.2-4.7
		c4.2,0,8.1,0.5,11.8,1.5s7,2.3,10,4l-3.3,9.2c-2.2-1.2-5-2.3-8.3-3.2s-6.3-1.4-9-1.4c-5.8,0-10.9,1.2-15.3,3.5
		c-4.4,2.3-7.8,5.7-10.2,10s-3.6,9.4-3.6,15.1c0,5.4,1.2,10.1,3.6,14.3c2.4,4.2,5.8,7.4,10.2,9.7s9.4,3.5,15,3.5
		c2.6,0,5.2-0.3,7.6-0.8c2.5-0.5,4.5-1.3,6.2-2.2v-15h-14.8v-9.6h24.9v30.1C2246.7,725.3,2243.2,727,2238.3,728.5z"/>
</g>
</svg>
