<?xml version="1.0" encoding="UTF-8"?>
<svg width="176px" height="40px" viewBox="0 0 176 40" version="1.1" xmlns="http://www.w3.org/2000/svg" xmlns:xlink="http://www.w3.org/1999/xlink">
    <!-- Generator: Sketch 52.4 (67378) - http://www.bohemiancoding.com/sketch -->
    <title>Group 2</title>
    <desc>Created with Sketch.</desc>
    <defs>
        <polygon id="path-1" points="0.332685986 0.125 31.4784152 0.125 31.4784152 39.5697917 0.332685986 39.5697917"></polygon>
        <polygon id="path-3" points="0.021487886 0.229541667 4.51830879 0.229541667 4.51830879 36.151625 0.021487886 36.151625"></polygon>
        <polygon id="path-5" points="8.36104515e-05 0.291833333 23.1985558 0.291833333 23.1985558 39.7351667 8.36104515e-05 39.7351667"></polygon>
    </defs>
    <g id="Symbols" stroke="none" stroke-width="1" fill="none" fill-rule="evenodd">
        <g id="1440-Header" transform="translate(-632.000000, -30.000000)">
            <g id="Group-2" transform="translate(632.000000, 30.000000)">
                <g id="Group-3" transform="translate(93.643789, 0.152000)">
                    <mask id="mask-2" fill="white">
                        <use xlink:href="#path-1"></use>
                    </mask>
                    <g id="Clip-2"></g>
                    <path d="M22.9923724,34.1760417 L22.1876219,34.1760417 L21.5291895,33.5197917 L20.8707572,34.1760417 L19.9393368,34.1760417 L19.9393368,35.104375 L19.2809045,35.760625 L19.6989568,36.1777083 C19.0254746,36.441875 18.3264912,36.6339583 17.6078594,36.7539583 L17.5263392,36.6722917 L17.5263392,35.7422917 L16.5932466,35.7422917 L15.9364865,35.0877083 L15.2797264,35.7422917 L14.3466337,35.7422917 L14.3466337,36.6722917 L14.2575886,36.7610417 C13.5389568,36.644375 12.8399734,36.454375 12.1660732,36.193125 L12.5995933,35.760625 L11.940743,35.104375 L11.940743,34.1760417 L11.0097406,34.1760417 L10.3513083,33.5197917 L9.69287601,34.1760417 L8.82918005,34.1760417 C8.38102803,33.793125 7.95210641,33.3752083 7.54575962,32.923125 L7.54575962,32.2035417 L8.20419192,31.5472917 L7.54575962,30.8910417 L7.54575962,29.9627083 L6.61433919,29.9627083 L5.95590689,29.3060417 L5.40407791,29.8564583 C4.96804941,29.050625 4.58218717,28.1935417 4.25736057,27.2864583 L4.97473824,27.2864583 L4.97473824,26.3585417 L5.6335886,25.701875 L4.97473824,25.045625 L4.97473824,24.1172917 L4.04373587,24.1172917 L3.38530356,23.4610417 L3.30378337,23.541875 C3.20136057,22.9060417 3.12276675,22.2572917 3.07385463,21.5947917 L3.23982138,21.4289583 L4.17124181,21.4289583 L4.17124181,20.5010417 L4.82967411,19.844375 L4.17124181,19.188125 L4.17124181,18.2597917 L3.23982138,18.2597917 L3.07427268,18.0947917 C3.12234869,17.4447917 3.19968836,16.8077083 3.3000209,16.1827083 L3.38530356,16.2677083 L4.04373587,15.6114583 L4.97473824,15.6114583 L4.97473824,14.683125 L5.6335886,14.026875 L4.97473824,13.3702083 L4.97473824,12.4422917 L4.25234394,12.4422917 C4.57675249,11.536875 4.96219667,10.6802083 5.39780713,9.875625 L5.95590689,10.431875 L6.61433919,9.775625 L7.54575962,9.775625 L7.54575962,8.84729167 L8.20419192,8.19104167 L7.54575962,7.53479167 L7.54575962,6.80770833 C7.95586888,6.35229167 8.38897102,5.931875 8.84213967,5.54729167 L9.69287601,5.54729167 L10.3513083,6.20354167 L11.0097406,5.54729167 L11.940743,5.54729167 L11.940743,4.61854167 L12.5995933,3.96229167 L12.1773606,3.54145833 C12.860458,3.27854167 13.5682204,3.08770833 14.2968855,2.97270833 L14.3466337,3.02229167 L14.3466337,3.94895833 L15.2763819,3.94895833 L15.9364865,4.606875 L16.596591,3.94895833 L17.5263392,3.94895833 L17.5263392,3.02229167 L17.5706527,2.978125 C18.2988998,3.09604167 19.0074983,3.28895833 19.6897596,3.55479167 L19.2809045,3.96229167 L19.9393368,4.61854167 L19.9393368,5.54729167 L20.8707572,5.54729167 L21.5291895,6.20354167 L22.1876219,5.54729167 L22.9848475,5.54729167 C23.4375981,5.931875 23.8702822,6.35229167 24.2799734,6.80729167 L24.2799734,7.53479167 L23.6215411,8.19104167 L24.2799734,8.84729167 L24.2799734,9.775625 L25.2113938,9.775625 L25.8698261,10.431875 L26.4266717,9.87729167 C26.8614461,10.6814583 27.2464722,11.5372917 27.5704627,12.4422917 L26.8948903,12.4422917 L26.8948903,13.3702083 L26.236458,14.026875 L26.8948903,14.683125 L26.8948903,15.6114583 L27.8263107,15.6114583 L28.484743,16.2677083 L28.5286385,16.2239583 C28.6252086,16.8322917 28.6992038,17.4522917 28.7468618,18.0847917 L28.5712798,18.2597917 L27.6398594,18.2597917 L27.6398594,19.188125 L26.9814271,19.844375 L27.6398594,20.5010417 L27.6398594,21.4289583 L28.5712798,21.4289583 L28.7472798,21.604375 C28.6992038,22.2472917 28.6235363,22.8772917 28.5252941,23.495625 L28.484743,23.4547917 L27.8263107,24.1114583 L26.8948903,24.1114583 L26.8948903,25.039375 L26.236458,25.695625 L26.8948903,26.3522917 L26.8948903,27.280625 L27.5658641,27.280625 C27.2410375,28.188125 26.8551753,29.046875 26.4191468,29.8535417 L25.8698261,29.3060417 L25.2113938,29.9627083 L24.2799734,29.9627083 L24.2799734,30.8910417 L23.6215411,31.5472917 L24.2799734,32.2035417 L24.2799734,32.918125 C23.8723724,33.3722917 23.4421967,33.791875 22.9923724,34.1760417 Z M30.8199829,19.188125 L30.8199829,18.2597917 L29.8881444,18.2597917 L29.5737691,17.9464583 C29.5118974,17.149375 29.4082204,16.3710417 29.2710993,15.6114583 L30.0741777,15.6114583 L30.0741777,14.683125 L30.7334461,14.026875 L30.0741777,13.3702083 L30.0741777,12.4422917 L29.1431753,12.4422917 L28.484743,11.785625 L28.2890945,11.980625 C28.0052371,11.211875 27.6808285,10.4752083 27.3183772,9.775625 L27.4600969,9.775625 L27.4600969,8.84729167 L28.1185292,8.19104167 L27.4600969,7.53479167 L27.4600969,6.60645833 L26.5286765,6.60645833 L25.8698261,5.94979167 L25.2113938,6.60645833 L25.2109758,6.60645833 C24.5747002,5.854375 23.8819876,5.181875 23.140781,4.596875 L23.7778926,3.96229167 L23.1194603,3.30604167 L23.1194603,2.37770833 L22.1876219,2.37770833 L21.5291895,1.72145833 L20.8707572,2.37770833 L19.9393368,2.37770833 L19.9393368,2.758125 C19.3197834,2.51979167 18.6814176,2.33354167 18.0259116,2.20729167 L17.5263392,1.709375 L17.5263392,0.779375 L16.5932466,0.779375 L15.9364865,0.124791667 L15.2797264,0.779375 L14.3466337,0.779375 L14.3466337,1.709375 L13.8550043,2.19979167 C13.1990803,2.32270833 12.5607145,2.505625 11.940743,2.74020833 L11.940743,2.37770833 L11.0097406,2.37770833 L10.3513083,1.72145833 L9.69287601,2.37770833 L8.76145558,2.37770833 L8.76145558,3.30604167 L8.10302328,3.96229167 L8.71588789,4.573125 C7.96297577,5.163125 7.25981188,5.844375 6.61475724,6.60645833 L6.61433919,6.60645833 L5.95590689,5.94979167 L5.29747458,6.60645833 L4.36605416,6.60645833 L4.36605416,7.53479167 L3.7072038,8.19104167 L4.36605416,8.84729167 L4.36605416,9.775625 L4.50526556,9.775625 C4.14783088,10.4647917 3.82760285,11.1902083 3.54625368,11.946875 L3.38530356,11.785625 L2.72645321,12.4422917 L1.79503278,12.4422917 L1.79503278,13.3702083 L1.13660048,14.026875 L1.79503278,14.683125 L1.79503278,15.6114583 L2.55087126,15.6114583 C2.41375012,16.3672917 2.31090926,17.141875 2.24861948,17.9347917 L1.92295677,18.2597917 L0.99111829,18.2597917 L0.99111829,19.188125 L0.332685986,19.844375 L0.99111829,20.5010417 L0.99111829,21.4289583 L1.92295677,21.4289583 L2.24778337,21.7535417 C2.31049121,22.560625 2.41542233,23.3485417 2.55505178,24.1172917 L1.79503278,24.1172917 L1.79503278,25.045625 L1.13660048,25.701875 L1.79503278,26.3585417 L1.79503278,27.2864583 L2.72645321,27.2864583 L3.38530356,27.943125 L3.55085226,27.7777083 C3.83345558,28.539375 4.15535582,29.269375 4.51529881,29.9627083 L4.36605416,29.9627083 L4.36605416,30.8910417 L3.7072038,31.5472917 L4.36605416,32.2035417 L4.36605416,33.131875 L5.29747458,33.131875 L5.95590689,33.788125 L6.61433919,33.131875 L6.62186413,33.131875 C7.26315629,33.8902083 7.96213967,34.568125 8.70919905,35.1564583 L8.10302328,35.760625 L8.76145558,36.416875 L8.76145558,37.3452083 L9.69287601,37.3452083 L10.3513083,38.001875 L11.0097406,37.3452083 L11.940743,37.3452083 L11.940743,36.9985417 C12.5778546,37.2402083 13.2341967,37.425625 13.908515,37.5485417 L14.3466337,37.9852083 L14.3466337,38.911875 L15.2763819,38.911875 L15.9364865,39.5697917 L16.596591,38.911875 L17.5263392,38.911875 L17.5263392,37.9852083 L17.9740732,37.5389583 C18.6475553,37.4122917 19.3038974,37.2227083 19.9393368,36.9772917 L19.9393368,37.3452083 L20.8707572,37.3452083 L21.5291895,38.001875 L22.1876219,37.3452083 L23.1194603,37.3452083 L23.1194603,36.416875 L23.7778926,35.760625 L23.1445435,35.1297917 C23.8794793,34.5477083 24.5680114,33.879375 25.1996884,33.131875 L25.2113938,33.131875 L25.8698261,33.788125 L26.5286765,33.131875 L27.4600969,33.131875 L27.4600969,32.2035417 L28.1185292,31.5472917 L27.4600969,30.8910417 L27.4600969,29.9627083 L27.3062537,29.9627083 C27.6720494,29.2572917 27.9998024,28.514375 28.2857501,27.7385417 L28.484743,27.936875 L29.1431753,27.280625 L30.0741777,27.280625 L30.0741777,26.3522917 L30.7334461,25.695625 L30.0741777,25.039375 L30.0741777,24.1114583 L29.2673368,24.1114583 C29.4069663,23.340625 29.5118974,22.5510417 29.5746052,21.741875 L29.8881444,21.4289583 L30.8199829,21.4289583 L30.8199829,20.5010417 L31.4784152,19.844375 L30.8199829,19.188125 Z" id="Fill-1" fill="#000000" mask="url(#mask-2)"></path>
                </g>
                <g id="Group-6" transform="translate(171.401509, 1.818667)">
                    <mask id="mask-4" fill="white">
                        <use xlink:href="#path-3"></use>
                    </mask>
                    <g id="Clip-5"></g>
                    <polygon id="Fill-4" fill="#000000" mask="url(#mask-4)" points="2.68907933 9.53370833 2.92862328 9.29495833 3.86004371 9.29495833 3.86004371 8.36704167 4.51847601 7.71079167 3.86004371 7.054125 3.86004371 6.12579167 2.92862328 6.12579167 2.68907933 5.88745833 2.68907933 4.29370833 2.92862328 4.05495833 3.86004371 4.05495833 3.86004371 3.12704167 4.51847601 2.470375 3.86004371 1.814125 3.86004371 0.885791667 2.92862328 0.885791667 2.26977292 0.229541667 1.61134062 0.885791667 0.67992019 0.885791667 0.67992019 1.814125 0.021487886 2.470375 0.67992019 3.12704167 0.67992019 4.05495833 1.61134062 4.05495833 1.85297482 4.29579167 1.85297482 5.88495833 1.61134062 6.12579167 0.67992019 6.12579167 0.67992019 7.054125 0.021487886 7.71079167 0.67992019 8.36704167 0.67992019 9.29495833 1.61134062 9.29495833 1.85297482 9.53579167 1.85297482 11.1257917 1.61134062 11.3662083 0.67992019 11.3662083 0.67992019 12.2945417 0.021487886 12.9512083 0.67992019 13.6074583 0.67992019 14.5357917 1.61134062 14.5357917 1.85297482 14.776625 1.85297482 16.3637083 1.61134062 16.6045417 0.67992019 16.6045417 0.67992019 17.532875 0.021487886 18.189125 0.67992019 18.845375 0.67992019 19.7737083 1.61134062 19.7737083 1.85297482 20.0145417 1.85297482 21.6049583 1.61134062 21.8457917 0.67992019 21.8457917 0.67992019 22.7737083 0.021487886 23.430375 0.67992019 24.086625 0.67992019 25.0149583 1.61134062 25.0149583 1.85297482 25.2557917 1.85297482 26.8462083 1.61134062 27.0870417 0.67992019 27.0870417 0.67992019 28.015375 0.021487886 28.6720417 0.67992019 29.3282917 0.67992019 30.2562083 1.61134062 30.2562083 1.85297482 30.4974583 1.85297482 32.085375 1.60925036 32.3282917 0.67992019 32.3282917 0.67992019 33.254125 0.021487886 33.910375 0.67992019 34.5670417 0.67992019 35.4974583 1.61384893 35.4974583 2.26977292 36.151625 2.92611496 35.4974583 3.86004371 35.4974583 3.86004371 34.5670417 4.51847601 33.910375 3.86004371 33.254125 3.86004371 32.3282917 2.93071354 32.3282917 2.68907933 32.0874583 2.68907933 30.4949583 2.92862328 30.2562083 3.86004371 30.2562083 3.86004371 29.3282917 4.51847601 28.6720417 3.86004371 28.015375 3.86004371 27.0870417 2.92862328 27.0870417 2.68907933 26.8487083 2.68907933 25.2537083 2.92862328 25.0149583 3.86004371 25.0149583 3.86004371 24.086625 4.51847601 23.430375 3.86004371 22.7737083 3.86004371 21.8457917 2.92862328 21.8457917 2.68907933 21.6070417 2.68907933 20.0120417 2.92862328 19.7737083 3.86004371 19.7737083 3.86004371 18.845375 4.51847601 18.189125 3.86004371 17.532875 3.86004371 16.6045417 2.92862328 16.6045417 2.68907933 16.3657917 2.68907933 14.7745417 2.92862328 14.5357917 3.86004371 14.5357917 3.86004371 13.6074583 4.51847601 12.9512083 3.86004371 12.2945417 3.86004371 11.3662083 2.92862328 11.3662083 2.68907933 11.127875"></polygon>
                </g>
                <polygon id="Fill-7" fill="#000000" points="89.5685321 35.072875 89.5685321 34.141625 88.6341853 34.141625 87.9786793 33.4882917 87.3235914 34.141625 86.3892447 34.141625 86.3892447 35.072875 86.1484466 35.3124583 83.8951449 35.3124583 83.6547648 35.072875 83.6547648 34.1445417 82.7233444 34.1445417 82.0649121 33.4882917 81.4064798 34.1445417 80.4746413 34.1445417 80.4746413 35.072875 80.2342613 35.3124583 77.9893207 35.3124583 77.7489406 35.072875 77.7489406 34.1445417 76.8175202 34.1445417 76.1590879 33.4882917 75.5006556 34.1445417 74.5688171 34.1445417 74.5688171 35.072875 74.3284371 35.3124583 72.0742993 35.3124583 71.8339192 35.072875 71.8339192 34.1470417 70.9050071 34.1470417 70.6621188 33.9049583 70.6621188 32.3149583 70.9029169 32.0749583 71.8339192 32.0749583 71.8339192 31.1470417 72.4923515 30.490375 71.8339192 29.834125 71.8339192 28.9057917 70.9029169 28.9057917 70.6621188 28.6662083 70.6621188 27.0732917 70.9029169 26.8337083 71.8339192 26.8337083 71.8339192 25.905375 72.4923515 25.2487083 71.8339192 24.5924583 71.8339192 23.6645417 70.9029169 23.6645417 70.6621188 23.4245417 70.6621188 21.8320417 70.9029169 21.5924583 71.8339192 21.5924583 71.8339192 20.664125 72.4923515 20.007875 71.8339192 19.351625 71.8339192 18.4232917 70.9029169 18.4232917 70.6621188 18.1832917 70.6621188 16.594125 70.9029169 16.3545417 71.8339192 16.3545417 71.8339192 15.4262083 72.4923515 14.7695417 71.8339192 14.1132917 71.8339192 13.1849583 70.9029169 13.1849583 70.6621188 12.945375 70.6621188 11.3537083 70.9029169 11.1137083 71.8339192 11.1137083 71.8339192 10.185375 72.4923515 9.529125 71.8339192 8.872875 71.8339192 7.94454167 70.9029169 7.94454167 70.6621188 7.70454167 70.6621188 6.11370833 70.9029169 5.87370833 71.8339192 5.87370833 71.8339192 4.945375 72.4923515 4.289125 71.8339192 3.63245833 71.8339192 2.70454167 70.9029169 2.70454167 70.2440665 2.04829167 69.5856342 2.70454167 68.6542138 2.70454167 68.6542138 3.63245833 67.9953634 4.289125 68.6542138 4.945375 68.6542138 5.87370833 69.5856342 5.87370833 69.8260143 6.11329167 69.8260143 7.70495833 69.5856342 7.94454167 68.6542138 7.94454167 68.6542138 8.872875 67.9953634 9.529125 68.6542138 10.185375 68.6542138 11.1137083 69.5856342 11.1137083 69.8260143 11.3532917 69.8260143 12.945375 69.5856342 13.1849583 68.6542138 13.1849583 68.6542138 14.1132917 67.9953634 14.7695417 68.6542138 15.4262083 68.6542138 16.3545417 69.5856342 16.3545417 69.8260143 16.594125 69.8260143 18.1832917 69.5856342 18.4232917 68.6542138 18.4232917 68.6542138 19.351625 67.9953634 20.007875 68.6542138 20.664125 68.6542138 21.5924583 69.5856342 21.5924583 69.8260143 21.8320417 69.8260143 23.4245417 69.5856342 23.6645417 68.6542138 23.6645417 68.6542138 24.5924583 67.9953634 25.2487083 68.6542138 25.905375 68.6542138 26.8337083 69.5856342 26.8337083 69.8260143 27.0732917 69.8260143 28.6662083 69.5856342 28.9057917 68.6542138 28.9057917 68.6542138 29.834125 67.9953634 30.490375 68.6542138 31.1470417 68.6542138 32.0749583 69.5856342 32.0749583 69.8260143 32.3145417 69.8260143 33.9049583 69.5831259 34.1470417 68.6542138 34.1470417 68.6542138 35.072875 67.9953634 35.729125 68.6542138 36.385375 68.6542138 37.3162083 69.5877245 37.3162083 70.2440665 37.970375 70.9004086 37.3162083 71.8339192 37.3162083 71.8339192 36.385375 72.0742993 36.1457917 74.3284371 36.1457917 74.5688171 36.385375 74.5688171 37.3137083 75.5002375 37.3137083 76.1590879 37.970375 76.8175202 37.3137083 77.7489406 37.3137083 77.7489406 36.385375 77.9893207 36.1457917 80.2342613 36.1457917 80.4746413 36.385375 80.4746413 37.3137083 81.4064798 37.3137083 82.0649121 37.970375 82.7233444 37.3137083 83.6547648 37.3137083 83.6547648 36.385375 83.8951449 36.1457917 86.1480285 36.1457917 86.3892447 36.385375 86.3892447 37.3107917 87.3169026 37.3107917 87.9786793 37.970375 88.6404561 37.3107917 89.5685321 37.3107917 89.5685321 36.385375 90.2269644 35.729125"></polygon>
                <path d="M49.2293321,24.6291667 L49.2293321,23.7008333 L48.2979116,23.7008333 L47.6394793,23.0445833 L46.980629,23.7008333 L46.0496266,23.7008333 L46.0496266,24.6291667 L45.8088285,24.86875 L43.5576171,24.86875 L43.316819,24.6291667 L43.316819,23.7008333 L42.3858166,23.7008333 L41.7273843,23.0445833 L41.068534,23.7008333 L40.1371135,23.7008333 L40.1371135,24.6291667 L39.8967335,24.86875 L37.6379971,24.86875 L37.3992893,24.6308333 L37.3992893,23.7008333 L36.9059876,23.7008333 L37.6166765,21.9454167 L37.9427572,22.27 L38.6016076,21.6133333 L39.5309378,21.6133333 L39.5309378,20.6870833 L40.1910423,20.0291667 L39.5309378,19.3708333 L39.5309378,18.4441667 L39.0338736,18.4441667 L39.7433083,16.6920833 L40.0618641,17.0095833 L40.7202964,16.35375 L41.6538071,16.35375 L41.6538071,15.4233333 L42.3105672,14.76875 L41.6538071,14.1141667 L41.6538071,13.1841667 L41.1630138,13.1841667 L41.8678499,11.4441667 L42.188496,11.7641667 L42.8469283,11.1075 L43.7766765,11.1075 L43.7766765,10.18125 L44.436781,9.52291667 L43.7766765,8.865 L43.7766765,7.93791667 L43.2867192,7.93791667 L44.0801824,5.97875 L44.6629473,6.56 L45.2645245,5.96083333 L46.0650945,7.93875 L45.5855886,7.93875 L45.5855886,8.865 L44.9254841,9.52291667 L45.5855886,10.18125 L45.5855886,11.1079167 L46.5157549,11.1079167 L47.1737691,11.7641667 L47.4868903,11.4516667 L48.1883819,13.18375 L47.6975886,13.18375 L47.6975886,14.1141667 L47.0408285,14.76875 L47.6975886,15.4233333 L47.6975886,16.3529167 L48.6302632,16.3529167 L49.2895316,17.0095833 L49.6080874,16.6916667 L50.3179401,18.4445833 L49.8250565,18.4445833 L49.8250565,19.3708333 L49.164952,20.0291667 L49.8250565,20.6870833 L49.8250565,21.6141667 L50.7548048,21.6141667 L51.4136551,22.27 L51.7359734,21.9483333 L52.4454081,23.7008333 L51.9617216,23.7008333 L51.9617216,24.6291667 L51.7213416,24.86875 L49.4697121,24.86875 L49.2293321,24.6291667 Z M59.3533036,35.07125 L59.3533036,34.1441667 L58.4235553,34.1441667 L57.765123,33.4883333 L57.4402964,33.8125 L56.7471658,32.1016667 L57.253009,32.1016667 L57.253009,31.1716667 L57.9097691,30.5166667 L57.253009,29.8620833 L57.253009,28.9325 L56.3203344,28.9325 L55.6614841,28.2758333 L55.3320589,28.6041667 L54.6297311,26.87 L55.1418451,26.87 L55.1418451,25.9416667 L55.8002774,25.2854167 L55.1418451,24.6291667 L55.1418451,23.7008333 L54.2104247,23.7008333 L53.5515743,23.0445833 L53.2162964,23.37875 L52.5022632,21.6141667 L53.004762,21.6141667 L53.004762,20.68375 L53.6619401,20.0291667 L53.004762,19.3745833 L53.004762,18.4445833 L52.0720874,18.4445833 L51.4136551,17.7883333 L51.0854841,18.1145833 L50.3722869,16.3529167 L50.8772941,16.3529167 L50.8772941,15.4270833 L51.5373986,14.76875 L50.8772941,14.1104167 L50.8772941,13.18375 L49.9475458,13.18375 L49.2895316,12.5279167 L48.9580162,12.8583333 L48.2494176,11.1079167 L48.7657121,11.1079167 L48.7657121,10.1775 L49.4224722,9.52291667 L48.7657121,8.86833333 L48.7657121,7.93875 L47.8326195,7.93875 L47.1737691,7.28208333 L46.836401,7.61791667 L46.1424342,5.90375 L46.2532181,5.90375 L46.2532181,4.97541667 L46.9116504,4.31916667 L46.2532181,3.6625 L46.2532181,2.73458333 L45.3213796,2.73458333 L44.6629473,2.07791667 L44.004515,2.73458333 L43.0730945,2.73458333 L43.0730945,3.6625 L42.4146622,4.31916667 L43.0730945,4.97541667 L43.0730945,5.90375 L43.2089615,5.90375 L42.5179211,7.61041667 L42.188496,7.28208333 L41.5300637,7.93791667 L40.596971,7.93791667 L40.596971,8.86833333 L39.9397929,9.52291667 L40.596971,10.1775 L40.596971,11.1075 L41.1023962,11.1075 L40.3933796,12.8583333 L40.0618641,12.5279167 L39.4030138,13.1841667 L38.4736836,13.1841667 L38.4736836,14.1104167 L37.8135791,14.76875 L38.4736836,15.4270833 L38.4736836,16.35375 L38.9786907,16.35375 L38.2671658,18.11125 L37.9427572,17.7883333 L37.2843249,18.4441667 L36.3508143,18.4441667 L36.3508143,19.3745833 L35.6940542,20.0291667 L36.3508143,20.68375 L36.3508143,21.6133333 L36.8495506,21.6133333 L36.1376076,23.3729167 L35.8077644,23.0445833 L35.148914,23.7008333 L34.2195838,23.7008333 L34.2195838,24.6275 L33.5594793,25.2854167 L34.2195838,25.94375 L34.2195838,26.87 L34.7216646,26.87 L34.0189188,28.6054167 L33.6882394,28.2758333 L33.0302252,28.9320833 L32.0967145,28.9320833 L32.0967145,29.8620833 L31.4399544,30.5166667 L32.0967145,31.1716667 L32.0967145,32.10125 L32.6038119,32.10125 L31.9115173,33.8125 L31.5862727,33.4883333 L30.9278404,34.145 L29.9980922,34.145 L29.9980922,35.07125 L29.3379876,35.7291667 L29.9980922,36.3875 L29.9980922,37.3141667 L30.9282584,37.3141667 L31.5862727,37.9704167 L32.244705,37.3141667 L33.1777976,37.3141667 L33.1777976,36.38375 L33.8349758,35.7291667 L33.1777976,35.0745833 L33.1777976,34.145 L32.6782252,34.145 L33.3688475,32.4391667 L33.6882394,32.7579167 L34.3470898,32.10125 L35.27642,32.10125 L35.27642,31.175 L35.9369425,30.5166667 L35.27642,29.85875 L35.27642,28.9320833 L34.788553,28.9320833 L35.4867002,27.2066667 L35.8077644,27.5266667 L36.4661967,26.87 L37.3992893,26.87 L37.3992893,25.94 L37.6379971,25.7020833 L39.8967335,25.7020833 L40.1371135,25.9416667 L40.1371135,26.87 L41.068534,26.87 L41.7273843,27.5266667 L42.3858166,26.87 L43.316819,26.87 L43.316819,25.9416667 L43.5576171,25.7020833 L45.8088285,25.7020833 L46.0496266,25.9416667 L46.0496266,26.87 L46.981047,26.87 L47.6394793,27.5266667 L48.2979116,26.87 L49.2293321,26.87 L49.2293321,25.9416667 L49.4697121,25.7020833 L51.7213416,25.7020833 L51.9617216,25.9416667 L51.9617216,26.87 L52.893142,26.87 L53.5515743,27.5266667 L53.8667857,27.2125 L54.5632608,28.9325 L54.0733036,28.9325 L54.0733036,29.85875 L53.412781,30.5166667 L54.0733036,31.175 L54.0733036,32.1016667 L55.0030518,32.1016667 L55.6614841,32.7579167 L55.9821302,32.4379167 L56.6731705,34.1441667 L56.17318,34.1441667 L56.17318,35.0745833 L55.516838,35.7291667 L56.17318,36.38375 L56.17318,37.31375 L57.1062727,37.31375 L57.765123,37.9704167 L58.4239734,37.31375 L59.3533036,37.31375 L59.3533036,36.3875 L60.0138261,35.7291667 L59.3533036,35.07125 Z" id="Fill-9" fill="#000000"></path>
                <polygon id="Fill-11" fill="#000000" points="158.63574 6.11395833 158.876538 5.87354167 159.807958 5.87354167 159.807958 4.945625 160.46639 4.28895833 159.807958 3.63270833 159.807958 2.704375 158.876538 2.704375 158.218105 2.048125 157.559673 2.704375 156.628253 2.704375 156.628253 3.63270833 155.969402 4.28895833 156.628253 4.945625 156.628253 5.87354167 157.559673 5.87354167 157.799635 6.113125 157.799217 7.705625 157.559673 7.94479167 156.628253 7.94479167 156.628253 8.87270833 155.969402 9.529375 156.628253 10.185625 156.628253 11.1139583 157.559673 11.1139583 157.798381 11.351875 157.798381 12.9472917 157.559673 13.1852083 156.628253 13.1852083 156.628253 14.1135417 155.969402 14.7697917 156.628253 15.4260417 156.628253 16.354375 157.559673 16.354375 157.797545 16.5914583 157.797127 18.1860417 157.559673 18.423125 156.628253 18.423125 156.628253 19.3514583 155.969402 20.0077083 156.628253 20.6639583 156.628253 21.5922917 157.559673 21.5922917 157.796291 21.8285417 157.796291 23.4285417 157.559673 23.664375 156.628253 23.664375 156.628253 24.5927083 155.969402 25.2489583 156.628253 25.905625 156.628253 26.8335417 157.559673 26.8335417 157.795455 27.0689583 157.795037 28.6710417 157.559673 28.9060417 156.628253 28.9060417 156.628253 29.8339583 155.969402 30.490625 156.628253 31.146875 156.628253 32.0752083 157.559673 32.0752083 157.794619 32.309375 157.7942 33.910625 157.557165 34.146875 156.628253 34.146875 156.628253 34.4397917 155.161307 32.0247917 155.161307 31.146875 155.820158 30.490625 155.161307 29.8339583 155.161307 28.908125 154.232395 28.908125 153.571873 28.2497917 153.134172 28.685625 151.913877 26.676875 151.913877 25.905625 152.57231 25.2489583 151.913877 24.5927083 151.913877 23.661875 150.980367 23.661875 150.324025 23.0077083 149.926457 23.4039583 148.827816 21.5947917 149.03517 21.5947917 149.03517 20.6639583 149.693602 20.0077083 149.03517 19.3514583 149.03517 18.425625 148.106257 18.425625 147.444899 17.766875 146.858371 18.351875 145.644348 16.351875 146.04944 16.351875 146.04944 15.4260417 146.707873 14.7697917 146.04944 14.1135417 146.04944 13.1827083 145.115512 13.1827083 144.45917 12.5289583 143.803246 13.1827083 143.719217 13.1827083 142.464224 11.1160417 142.852177 11.1160417 142.852177 10.185625 143.510609 9.529375 142.852177 8.87270833 142.852177 7.946875 141.923265 7.946875 141.262324 7.288125 140.601383 7.946875 140.53993 7.946875 138.545402 4.66270833 138.920395 4.28895833 138.261963 3.63270833 138.261963 2.704375 137.330543 2.704375 136.67211 2.048125 136.01326 2.704375 135.081839 2.704375 135.081839 3.63270833 134.423407 4.28895833 135.081839 4.945625 135.081839 5.87354167 136.01326 5.87354167 136.254058 6.11354167 136.254058 7.70479167 136.01326 7.94479167 135.081839 7.94479167 135.081839 8.87270833 134.423407 9.529375 135.081839 10.185625 135.081839 11.1139583 136.01326 11.1139583 136.254058 11.3535417 136.254058 12.945625 136.01326 13.1852083 135.081839 13.1852083 135.081839 14.1135417 134.423407 14.7697917 135.081839 15.4260417 135.081839 16.354375 136.01326 16.354375 136.254058 16.5939583 136.254058 18.1835417 136.01326 18.423125 135.081839 18.423125 135.081839 19.3514583 134.423407 20.0077083 135.081839 20.6639583 135.081839 21.5922917 136.01326 21.5922917 136.254058 21.8322917 136.254058 23.424375 136.01326 23.664375 135.081839 23.664375 135.081839 24.5927083 134.423407 25.2489583 135.081839 25.905625 135.081839 26.8335417 136.01326 26.8335417 136.254058 27.0735417 136.254058 28.6660417 136.01326 28.9060417 135.081839 28.9060417 135.081839 29.8339583 134.423407 30.490625 135.081839 31.146875 135.081839 32.0752083 136.01326 32.0752083 136.254058 32.3147917 136.254058 33.9047917 136.01117 34.146875 135.081839 34.146875 135.081839 35.0727083 134.423407 35.729375 135.081839 36.385625 135.081839 37.3160417 136.015768 37.3160417 136.67211 37.9702083 137.328034 37.3160417 138.261963 37.3160417 138.261963 36.385625 138.920395 35.729375 138.261963 35.0727083 138.261963 34.146875 137.332633 34.146875 137.090162 33.9047917 137.090162 32.3147917 137.330543 32.0752083 138.261963 32.0752083 138.261963 31.146875 138.920395 30.490625 138.261963 29.8339583 138.261963 28.9060417 137.330543 28.9060417 137.090162 28.6664583 137.090162 27.073125 137.330543 26.8335417 138.261963 26.8335417 138.261963 25.905625 138.920395 25.2489583 138.261963 24.5927083 138.261963 23.664375 137.330543 23.664375 137.090162 23.4247917 137.090162 21.8322917 137.330543 21.5922917 138.261963 21.5922917 138.261963 20.6639583 138.920395 20.0077083 138.261963 19.3514583 138.261963 18.423125 137.330543 18.423125 137.090162 18.1835417 137.090162 16.5939583 137.330543 16.354375 138.261963 16.354375 138.261963 15.4260417 138.920395 14.7697917 138.261963 14.1135417 138.261963 13.1852083 137.330543 13.1852083 137.090162 12.945625 137.090162 11.3535417 137.330543 11.1139583 138.261963 11.1139583 138.261963 10.185625 138.920395 9.529375 138.261963 8.87270833 138.261963 7.94479167 137.330543 7.94479167 137.090162 7.70479167 137.090162 6.11354167 137.330543 5.87354167 138.261963 5.87354167 138.261963 5.80479167 139.672889 8.12770833 139.672889 8.87270833 139.013621 9.529375 139.672889 10.185625 139.672889 11.1160417 140.6064 11.1160417 141.262324 11.7702083 141.649858 11.3839583 142.869317 13.3922917 142.869317 14.1135417 142.210885 14.7697917 142.869317 15.4260417 142.869317 16.351875 143.798647 16.351875 144.45917 17.010625 144.837925 16.6335417 145.926115 18.425625 145.855464 18.425625 145.855464 19.3514583 145.197032 20.0077083 145.855464 20.6639583 145.855464 21.5947917 146.788975 21.5947917 147.444899 22.2489583 147.945307 21.750625 149.10582 23.661875 148.733754 23.661875 148.733754 24.5927083 148.075322 25.2489583 148.733754 25.905625 148.733754 26.8314583 149.663084 26.8314583 150.324025 27.4897917 150.984965 26.8314583 151.030533 26.8314583 152.291797 28.908125 151.981602 28.908125 151.981602 29.8339583 151.32317 30.490625 151.981602 31.146875 151.981602 32.0777083 152.915113 32.0777083 153.571873 32.7314583 154.22069 32.0847917 156.258695 35.4410417 155.969402 35.729375 156.628253 36.385625 156.628253 37.3160417 157.562181 37.3160417 158.218105 37.9702083 158.874029 37.3160417 159.807958 37.3160417 159.807958 36.385625 160.46639 35.729375 159.807958 35.0727083 159.807958 34.146875 158.879046 34.146875 158.630305 33.899375 158.630723 32.3202083 158.876538 32.0752083 159.807958 32.0752083 159.807958 31.146875 160.46639 30.490625 159.807958 29.8339583 159.807958 28.9060417 158.876538 28.9060417 158.631559 28.6614583 158.631559 27.0777083 158.876538 26.8335417 159.807958 26.8335417 159.807958 25.905625 160.46639 25.2489583 159.807958 24.5927083 159.807958 23.664375 158.876538 23.664375 158.632395 23.4210417 158.632813 21.8352083 158.876538 21.5922917 159.807958 21.5922917 159.807958 20.6639583 160.46639 20.0077083 159.807958 19.3514583 159.807958 18.423125 158.876538 18.423125 158.633231 18.180625 158.633649 16.5964583 158.876538 16.354375 159.807958 16.354375 159.807958 15.4260417 160.46639 14.7697917 159.807958 14.1135417 159.807958 13.1852083 158.876538 13.1852083 158.634486 12.9439583 158.634486 11.3547917 158.876538 11.1139583 159.807958 11.1139583 159.807958 10.185625 160.46639 9.529375 159.807958 8.87270833 159.807958 7.94479167 158.876538 7.94479167 158.635322 7.70395833"></polygon>
                <mask id="mask-6" fill="white">
                    <use xlink:href="#path-5"></use>
                </mask>
                <g id="Clip-14"></g>
                <path d="M22.5401235,28.7535 L22.5401235,27.8251667 L23.1985558,27.1689167 L22.5401235,26.5126667 L22.5401235,25.5843333 L21.6087031,25.5843333 L20.9502708,24.9276667 L20.7153254,25.1618333 C20.5017007,24.6830833 20.2458527,24.2264167 19.9527981,23.78975 L19.9527981,23.1451667 L20.6112304,22.4885 L19.9527981,21.83225 L19.9527981,20.9039167 L19.0213777,20.9039167 L18.3625273,20.2476667 L17.704095,20.9039167 L16.9737577,20.9039167 C16.5172447,20.6039167 16.0285416,20.3255833 15.5076485,20.0693333 L15.8546318,19.7230833 L15.1961995,19.0664167 L15.1961995,18.1385 L14.2647791,18.1385 L13.6063468,17.48225 L12.9479145,18.1385 L12.0164941,18.1385 L12.0164941,18.7593333 C11.4450166,18.566 10.9086556,18.36475 10.399886,18.1564167 L10.7589929,17.7980833 L10.1005606,17.1418333 L10.1005606,16.2135 L9.16955819,16.2135 L8.51070784,15.55725 L7.85227553,16.2135 L6.92085511,16.2135 L6.92085511,16.2664167 C6.58139667,16.0143333 6.26116865,15.7564167 5.97856532,15.4855833 L5.97856532,15.3285 L6.63699762,14.67225 L5.97856532,14.0155833 L5.97856532,13.08725 L5.04672684,13.08725 L4.38829454,12.431 L4.14791449,12.6705833 C4.00368646,12.24725 3.90126366,11.8055833 3.83897387,11.34475 L4.16129216,11.0235 L5.09271259,11.0235 L5.09271259,10.0951667 L5.75114489,9.43891667 L5.09271259,8.78266667 L5.09271259,7.85433333 L4.21271259,7.85433333 C4.46312589,7.18725 4.81930641,6.52558333 5.28418052,5.9135 L5.38116865,5.9135 L6.03960095,6.56975 L6.69803325,5.9135 L7.62945368,5.9135 L7.62945368,4.98558333 L8.28788599,4.32891667 L7.77535392,3.81766667 C8.4112114,3.491 9.12775297,3.24225 9.92456057,3.09308333 L10.0215487,3.18933333 L10.0215487,4.11766667 L10.9525511,4.11766667 L11.6109834,4.77391667 L12.2698337,4.11766667 L13.2008361,4.11766667 L13.2008361,3.18933333 L13.303677,3.08683333 C14.1021568,3.23891667 14.808247,3.50016667 15.4344893,3.83016667 L14.9340808,4.32891667 L15.5925131,4.98558333 L15.5925131,5.9135 L16.5239335,5.9135 L17.1827838,6.56975 L17.8412162,5.9135 L17.9423848,5.9135 C18.5080095,6.6085 18.9260618,7.32391667 19.2249691,7.94016667 L18.8048266,7.94016667 L18.8048266,8.8685 L18.1463943,9.52475 L18.8048266,10.1814167 L18.8048266,11.1093333 L19.7366651,11.1093333 L20.3950974,11.7655833 L21.0535297,11.1093333 L21.9849501,11.1093333 L21.9849501,10.1814167 L22.6433824,9.52475 L21.9849501,8.8685 L21.9849501,7.94016667 L21.0535297,7.94016667 L20.3950974,7.28391667 L20.0017102,7.676 C19.7078195,7.07058333 19.3052352,6.3685 18.7722185,5.67016667 L18.7722185,4.98558333 L19.4310689,4.32891667 L18.7722185,3.67266667 L18.7722185,2.74433333 L17.8412162,2.74433333 L17.1827838,2.08808333 L16.5239335,2.74433333 L15.5925131,2.74433333 L15.5925131,2.986 C15.0043135,2.69433333 14.3513159,2.46183333 13.6331021,2.30766667 L13.2008361,1.87683333 L13.2008361,0.9485 L12.2698337,0.9485 L11.6109834,0.291833333 L10.9525511,0.9485 L10.0215487,0.9485 L10.0215487,1.87683333 L9.59095487,2.30516667 C8.87650356,2.45183333 8.22434204,2.67516667 7.62945368,2.95641667 L7.62945368,2.74433333 L6.69803325,2.74433333 L6.03960095,2.08808333 L5.38116865,2.74433333 L4.45016627,2.74433333 L4.45016627,3.67266667 L3.79089786,4.32891667 L4.45016627,4.98558333 L4.45016627,5.63933333 C4.0856247,6.156 3.78838955,6.69975 3.55637055,7.25141667 L3.50285986,7.19808333 L2.84442755,7.85433333 L1.91258907,7.85433333 L1.91258907,8.78266667 L1.25415677,9.43891667 L1.91258907,10.0951667 L1.91258907,11.0235 L2.84442755,11.0235 L2.96608076,11.1451667 C3.03087886,11.831 3.17803325,12.476 3.39667458,13.08725 L2.79844181,13.08725 L2.79844181,14.0155833 L2.1400095,14.67225 L2.79844181,15.3285 L2.79844181,16.2568333 L3.72986223,16.2568333 L4.38829454,16.9130833 L5.04672684,16.2568333 L5.57389074,16.2568333 C5.95013777,16.59725 6.36609976,16.9243333 6.82679335,17.2355833 L6.26200475,17.7980833 L6.92085511,18.4543333 L6.92085511,19.3826667 L7.85227553,19.3826667 L8.51070784,20.0389167 L9.16955819,19.3826667 L10.1005606,19.3826667 L10.1005606,18.9364167 C10.5729596,19.1289167 11.0645891,19.316 11.5863183,19.4951667 L11.3580618,19.7230833 L12.0164941,20.3793333 L12.0164941,21.3076667 L12.9479145,21.3076667 L13.6063468,21.9643333 L14.2647791,21.3076667 L15.1961995,21.3076667 L15.1961995,20.8339167 C15.735905,21.09975 16.2659952,21.4051667 16.7726746,21.7539167 L16.7726746,21.83225 L16.1142423,22.4885 L16.7726746,23.1451667 L16.7726746,24.0735 L17.704095,24.0735 L18.3625273,24.72975 L19.0209596,24.0735 L19.1651876,24.0735 C19.4900143,24.5339167 19.7742898,25.0368333 20.0075629,25.5843333 L19.3604181,25.5843333 L19.3604181,26.5126667 L18.7015677,27.1689167 L19.3604181,27.8251667 L19.3604181,28.7535 L20.2914204,28.7535 L20.712399,29.1726667 C20.712399,29.1943333 20.7140713,29.2143333 20.7140713,29.236 C20.7140713,29.5605833 20.6852257,29.8793333 20.6425843,30.1939167 L20.4682565,30.0201667 L19.8098242,30.6764167 L18.8784038,30.6764167 L18.8784038,31.60475 L18.2195534,32.261 L18.8784038,32.91725 L18.8784038,33.8455833 L19.0460428,33.8455833 C18.8282375,34.116 18.5928741,34.3735 18.3391164,34.6164167 L17.5945653,34.6164167 L16.936133,33.9601667 L16.2777007,34.6164167 L15.3458622,34.6164167 L15.3458622,35.54475 L14.6874299,36.2014167 L15.0783088,36.5914167 C14.5289881,36.7805833 13.9537482,36.91975 13.3576057,37.0064167 L13.1891306,36.8380833 L13.1891306,35.90975 L12.2577102,35.90975 L11.5988599,35.2535 L10.9404276,35.90975 L10.0090071,35.90975 L10.0090071,36.8380833 L9.92874109,36.9180833 C9.29330166,36.7955833 8.67542043,36.6164167 8.07885986,36.3801667 L8.51070784,35.94975 L7.85227553,35.2935 L7.85227553,34.3651667 L6.92085511,34.3651667 L6.26200475,33.7089167 L5.60357245,34.3651667 L4.84146318,34.3651667 C4.49531591,34.0568333 4.1592019,33.7276667 3.83855582,33.3701667 L3.83855582,32.6939167 L4.49698812,32.03725 L3.83855582,31.381 L3.83855582,30.4526667 L2.90713539,30.4526667 L2.24870309,29.7964167 L1.58985273,30.4526667 L0.658432304,30.4526667 L0.658432304,31.381 L0,32.03725 L0.658432304,32.6939167 L0.658432304,33.62225 L1.58985273,33.62225 L2.24870309,34.2785 L2.90713539,33.62225 L2.9552114,33.62225 C3.48697387,34.24975 4.05427078,34.8139167 4.65626603,35.30975 L4.01413777,35.94975 L4.67257007,36.6064167 L4.67257007,37.5343333 L5.60357245,37.5343333 L6.26200475,38.191 L6.92085511,37.5343333 L7.85227553,37.5343333 L7.85227553,37.1918333 C8.40452257,37.4051667 8.97265558,37.5764167 9.55667458,37.69975 L10.0090071,38.1505833 L10.0090071,39.0789167 L10.9404276,39.0789167 L11.5988599,39.7351667 L12.2577102,39.0789167 L13.1891306,39.0789167 L13.1891306,38.1505833 L13.5055962,37.8351667 C14.1422898,37.7414167 14.7576627,37.5901667 15.3458622,37.3880833 L15.3458622,37.786 L16.2777007,37.786 L16.936133,38.44225 L17.5945653,37.786 L18.5255677,37.786 L18.5255677,36.8576667 L19.1844181,36.2014167 L18.54438,35.5635 C19.0845036,35.0989167 19.5660998,34.5785 19.976209,34.0118333 L20.4682565,34.5018333 L21.1266888,33.8455833 L22.0581093,33.8455833 L22.0581093,32.91725 L22.7165416,32.261 L22.0581093,31.60475 L22.0581093,30.6764167 L21.416399,30.6764167 C21.5029359,30.2076667 21.5501758,29.7268333 21.5501758,29.236 C21.5501758,29.0976667 21.5384703,28.9643333 21.5338717,28.8280833 L21.6087031,28.7535 L22.5401235,28.7535 Z" id="Fill-13" fill="#000000" mask="url(#mask-6)"></path>
            </g>
        </g>
    </g>
</svg>